<svg height="617pt" viewBox="-19 -74 617.33212 617" width="617pt" xmlns="http://www.w3.org/2000/svg"><path d="m15.15625 446.382812c.390625.378907.816406.722657 1.269531 1.023438 11.023438 11.5 26.265625 17.992188 42.191407 17.988281h349.25c15.90625.003907 31.128906-6.476562 42.148437-17.941406 1.238281-.8125 2.242187-1.925781 2.925781-3.242187 8.765625-10.503907 13.5625-23.757813 13.550782-37.441407v-53.648437h38.894531c4.824219 0 8.730469-3.910156 8.730469-8.730469 0-4.824219-3.90625-8.730469-8.730469-8.730469h-38.894531v-49.246094c62.652343-4.363281 112.257812-55.296874 112.257812-117.28125 0-4.816406-3.910156-8.730468-8.730469-8.730468-4.820312 0-8.734375 3.914062-8.734375 8.730468 0 52.367188-41.785156 95.441407-94.792968 99.746094v-29.933594c38.738281-4.484374 67.988281-37.265624 68.035156-76.261718v-89.496094c0-42.394531-34.367188-76.761719-76.769532-76.761719-42.390624 0-76.761718 34.367188-76.761718 76.761719v41.175781h-322.378906c-29.457032.042969-54.320313 21.917969-58.121094 51.128907-.4687502 1.332031-.597656 2.753906-.394532 4.152343-.0624995 1.105469-.101562 2.222657-.101562 3.34375v233.78125c-.015625 13.671875 4.773438 26.917969 13.53125 37.421875.421875.8125.96875 1.554688 1.625 2.191406zm394.980469-110.722656c-4.824219 0-8.730469 3.90625-8.730469 8.730469 0 4.820313 3.90625 8.730469 8.730469 8.730469h38.890625v53.648437c.011718 6.894531-1.722656 13.671875-5.035156 19.71875l-104.941407-106.769531c-2.179687-2.265625-5.402343-3.1875-8.449219-2.414062-3.046874.777343-5.441406 3.128906-6.269531 6.160156-.828125 3.035156.039063 6.273437 2.265625 8.492187l105.914063 107.761719c-7.105469 5.339844-15.757813 8.222656-24.644531 8.214844h-349.25c-8.910157.007812-17.578126-2.890625-24.695313-8.253906l105.332031-107.738282c2.214844-2.226562 3.066406-5.464844 2.230469-8.488281-.839844-3.023437-3.238281-5.363281-6.277344-6.132813-3.039062-.769531-6.261719.152344-8.433593 2.410157l-104.3125 106.695312c-3.289063-6.027343-5.007813-12.789062-5.003907-19.65625v-219.566406l181.1875 153.421875c19.984375 17.019531 49.375 17.007812 69.351563-.03125l104.21875-88.386719c20.753906 20.132813 47.96875 32.25 76.8125 34.207031v49.246094zm-11.679688-262.472656c0-32.75 26.550781-59.300781 59.300781-59.300781 32.753907 0 59.308594 26.550781 59.308594 59.300781v89.496094c0 32.75-26.554687 59.300781-59.308594 59.300781-32.75 0-59.300781-26.550781-59.300781-59.300781zm-339.839843 58.636719h322.378906v30.859375c.046875 38.996094 29.292968 71.777344 68.03125 76.253906v29.9375c-53.011719-4.300781-94.796875-47.378906-94.796875-99.742188 0-4.824218-3.90625-8.730468-8.730469-8.730468-4.816406 0-8.730469 3.90625-8.730469 8.730468.011719 25.328126 8.394531 49.941407 23.84375 70.007813l-103.910156 88.132813c-13.472656 11.488281-33.292969 11.5-46.773437.019531l-191.683594-162.300781c3.839844-19.261719 20.734375-33.136719 40.371094-33.167969zm0 0"/></svg>